# xmcd
#
# Track frame offsets:
#	150
#	20807
#	33038
#	55944
#	77704
#	97507
#	115846
#	140674
#	156533
#	172811
#	190535
#	209443
#	227951
#	247227
#	265874
#	286839
#	305876
#	325424
#
# Disc length: 4546 seconds
#
# Revision: 2
# Processed by: cddbd v1.5.2PL0 Copyright (c) Steve Scherf et al.
# Submitted via: EasyCDDAExtractor 12.0.1.1
#
DISCID=fd11c012
DTITLE=Hellbillies - Røta: Hellbillies' Beste
DYEAR=2006
DGENRE=Country
TTITLE0=Ei krasafaren steinbu
TTITLE1=Aksjon på Ål
TTITLE2=Røta
TTITLE3=Baka ein stein
TTITLE4=Som eit lauv i eit vindkast
TTITLE5=So som so
TTITLE6=Sju
TTITLE7=På Ål stasjon
TTITLE8=Gamle Bry'n
TTITLE9=Den finaste eg veit
TTITLE10=Gode spørsmål
TTITLE11=Tolleiv
TTITLE12=Eg gløymer deg aldri
TTITLE13=Sur som rognebær
TTITLE14=Som ein båt på land
TTITLE15=Råka tå ei pil
TTITLE16=Mikrobølgeliv
TTITLE17=Ho Birgjit Lien
EXTD=
EXTT0=
EXTT1=
EXTT2=
EXTT3=
EXTT4=
EXTT5=
EXTT6=
EXTT7=
EXTT8=
EXTT9=
EXTT10=
EXTT11=
EXTT12=
EXTT13=
EXTT14=
EXTT15=
EXTT16=
EXTT17=
PLAYORDER=
